<svg width="83" height="26" viewBox="0 0 83 26" fill="none" xmlns="http://www.w3.org/2000/svg">
<path fill-rule="evenodd" clip-rule="evenodd" d="M23.5148 18.1939L23.5149 18.194C23.8848 19.1365 23.967 20.038 23.8437 20.9395C23.556 22.8244 22.323 24.4635 20.5146 25.2011C19.857 25.488 19.1583 25.6109 18.4185 25.6109C18.213 25.6109 17.9664 25.6109 17.7609 25.5699C16.8978 25.488 16.0347 25.2011 15.1716 24.7094C14.1441 24.1357 13.1166 23.2752 11.9658 22.0459C10.815 23.2752 9.82864 24.1357 8.76005 24.7094C7.89696 25.2011 7.03386 25.447 6.17077 25.5699C6.06802 25.5699 5.95499 25.5802 5.84197 25.5904L5.8419 25.5904C5.7289 25.6007 5.6159 25.6109 5.51317 25.6109C4.77337 25.6109 4.07468 25.488 3.41708 25.2011C1.64979 24.4635 0.334599 22.8654 0.0469004 20.9395C-0.0763989 19.997 0.0469004 19.0955 0.375698 18.194C0.498998 17.8252 0.622297 17.5383 0.745596 17.2515C0.951095 16.8008 1.15659 16.35 1.32099 15.9402L1.36209 15.8992C3.17048 12.0474 5.06107 8.15451 7.03386 4.30263L7.11606 4.13872C7.32156 3.76992 7.52706 3.36015 7.73256 2.95038C7.78791 2.86366 7.84326 2.77542 7.89919 2.68625L7.8992 2.68624L7.89921 2.68622C8.13401 2.31191 8.37912 1.92117 8.67785 1.55714C9.54095 0.573684 10.6917 0 11.9658 0C13.1988 0 14.3907 0.573684 15.2127 1.59812C15.6237 2.04887 15.9114 2.5406 16.158 2.99135C16.3635 3.40113 16.569 3.8109 16.7745 4.1797L16.8567 4.34361C18.8706 8.19549 20.7612 12.0883 22.5285 15.9402H22.5696C22.734 16.35 22.9394 16.8007 23.1449 17.2514L23.145 17.2515C23.2683 17.5383 23.3916 17.8661 23.5148 18.1939ZM43.3652 6.43214C43.3652 7.37462 42.6254 8.11221 41.6801 8.11221C40.7348 8.11221 39.995 7.37462 39.995 6.43214C39.995 5.48966 40.7348 4.75206 41.6801 4.75206C42.6665 4.79304 43.3652 5.53064 43.3652 6.43214ZM36.5026 9.79313V10.2029C36.5026 10.2029 35.7217 9.17846 33.9955 9.17846C31.2007 9.17846 29.0225 11.3093 29.0225 14.2597C29.0225 17.1691 31.2007 19.3409 33.9955 19.3409C35.7217 19.3409 36.5026 18.2755 36.5026 18.2755V18.7262C36.5026 18.9311 36.667 19.095 36.8725 19.095H38.9686V9.42433H36.8725C36.6259 9.42433 36.5026 9.58824 36.5026 9.79313ZM34.4057 17.0054C35.351 17.0054 36.1319 16.5137 36.5018 15.94V12.4979C36.1319 11.9652 35.3099 11.4325 34.4057 11.4325C32.7617 11.4325 31.4876 12.4569 31.4876 14.2189C31.4876 15.981 32.7617 17.0054 34.4057 17.0054ZM40.4477 9.42404H42.9137V19.0537H40.4477V9.42404ZM74.8073 10.2029C74.8073 10.2029 75.6293 9.17848 77.3143 9.17848C80.1091 9.17848 82.2874 11.3093 82.2874 14.2187C82.2874 17.1281 80.1091 19.2999 77.3143 19.2999C75.5882 19.2999 74.8073 18.2345 74.8073 18.2345V18.6852C74.8073 18.8901 74.6429 19.054 74.4374 19.054H72.3413V4.79389H74.8073V10.2029ZM76.9025 16.9636C75.9573 16.9636 75.2175 16.4719 74.8065 15.8982V12.4561C75.1764 11.9234 75.9984 11.3907 76.9025 11.3907C78.5465 11.3907 79.8206 12.4151 79.8206 14.1771C79.8206 15.9391 78.5465 16.9636 76.9025 16.9636ZM71.0674 19.095V13.3582C71.0674 11.7191 70.7386 10.8176 69.9166 10.1209C69.1768 9.50628 68.2726 9.17846 67.204 9.17846C66.2587 9.17846 65.3134 9.46531 64.5736 10.2029V9.79313C64.5736 9.58824 64.4092 9.42433 64.2037 9.42433H62.2309V19.095H64.6969V12.3747C65.1901 11.801 65.971 11.4322 66.7108 11.4322C68.0671 11.4322 68.6014 12.0469 68.6014 13.645V19.095H71.0674ZM56.2301 9.17848C54.545 9.17848 53.723 10.2029 53.723 10.2029V4.79389H51.257V19.054H53.3531C53.5586 19.054 53.723 18.8901 53.723 18.6852V18.2345C53.723 18.2345 54.5039 19.2999 56.2301 19.2999C59.0249 19.2999 61.2032 17.1281 61.2032 14.2187C61.2443 11.3093 59.066 9.17848 56.2301 9.17848ZM53.7222 15.8982C54.1332 16.4719 54.873 16.9636 55.8183 16.9636C57.4623 16.9636 58.7364 15.9391 58.7364 14.1771C58.7364 12.4151 57.4623 11.3907 55.8183 11.3907C54.9141 11.3907 54.0921 11.9234 53.7222 12.4561V15.8982ZM49.1608 9.17846C49.9006 9.17846 50.3116 9.3014 50.3116 9.3014V11.5961C50.3116 11.5961 48.2566 10.8995 46.9825 12.3747V19.095H44.5165V9.42433H46.6126C46.8181 9.42433 46.9825 9.58824 46.9825 9.79313V10.2029C47.3935 9.67019 48.3799 9.17846 49.1608 9.17846ZM11.9235 19.5038C10.5261 17.7417 9.6219 16.1026 9.3342 14.7504C9.21091 14.1767 9.16981 13.644 9.252 13.1932C9.29311 12.7835 9.4575 12.4147 9.663 12.1278C10.1562 11.4312 10.9782 10.9805 11.9235 10.9805C12.8688 10.9805 13.7319 11.3902 14.184 12.1278C14.3895 12.4557 14.5539 12.7835 14.595 13.1932C14.6772 13.644 14.6361 14.1767 14.5128 14.7504C14.2251 16.1026 13.3209 17.7417 11.9235 19.5038ZM19.8573 23.7249C21.1314 23.2332 22.0356 22.0858 22.2 20.7335C22.2822 20.0369 22.2 19.4223 22.0767 18.7666C22.0322 18.6335 21.9756 18.5004 21.9136 18.3543C21.861 18.2305 21.8044 18.0974 21.7479 17.9471C21.6451 17.7422 21.5527 17.527 21.4602 17.3119C21.3677 17.0968 21.2752 16.8817 21.1725 16.6768V16.6358C19.4052 12.8249 17.5146 8.93203 15.5418 5.12112L15.4596 4.95721L15.4596 4.9572C15.2541 4.54743 15.0486 4.13766 14.8431 3.76887C14.6376 3.35909 14.391 2.94932 14.1033 2.6215C13.569 2.00684 12.8292 1.67902 12.0483 1.67902C11.2674 1.67902 10.5276 2.00684 9.99335 2.6215C9.70565 2.9903 9.45905 3.35909 9.25355 3.76887C9.04805 4.17864 8.84255 4.58842 8.63706 4.95721L8.55486 5.12112C6.54097 8.93203 4.65038 12.8249 2.88309 16.6358L2.84199 16.6768C2.63649 17.0865 2.43099 17.5373 2.26659 17.9471C2.14329 18.2339 2.01999 18.5207 1.93779 18.7666C1.6501 19.5042 1.609 20.1189 1.6912 20.7745C1.85559 22.0858 2.75979 23.2332 4.03388 23.7659C4.60928 23.9707 5.26687 24.0937 5.96557 24.0117C6.62317 23.9298 7.28076 23.7249 7.93836 23.3561C8.84255 22.8234 9.78785 22.0448 10.8564 20.8565C9.17135 18.7666 8.10276 16.8407 7.73286 15.1606C7.52736 14.382 7.48626 13.6444 7.60956 12.9888C7.73286 12.3332 7.93836 11.7595 8.30826 11.2268C9.08915 10.1204 10.4454 9.42376 11.925 9.42376C13.4046 9.42376 14.7609 10.0794 15.5418 11.2268C15.9117 11.7595 16.1172 12.3332 16.2405 12.9888C16.3227 13.6444 16.2816 14.382 16.1172 15.1606C15.7062 16.8407 14.6787 18.7256 12.9936 20.8155C14.0622 22.0038 14.9664 22.7824 15.9117 23.3151C16.6104 23.6839 17.2269 23.8888 17.8845 23.9707C18.5832 24.0527 19.2408 23.9707 19.8573 23.7249Z" fill="#8C98A4"/>
</svg>
