<svg width="83" height="22" viewBox="0 0 83 22" fill="none" xmlns="http://www.w3.org/2000/svg">
<path fill-rule="evenodd" clip-rule="evenodd" d="M11.937 1.58304C11.937 2.43545 11.1935 3.16609 10.3261 3.16609C9.45867 3.16609 8.71517 2.43545 8.71517 1.58304C8.71517 0.730636 9.45867 0 10.3261 0C11.1935 0 11.937 0.730636 11.937 1.58304ZM10.3264 4.46486C9.37636 4.46486 8.63286 5.19549 8.63286 6.12908C8.63286 7.06267 9.37636 7.79331 10.3264 7.79331C11.2764 7.79331 12.0199 7.06267 12.0199 6.12908C12.0199 5.1549 11.2764 4.46486 10.3264 4.46486ZM8.59171 10.594C8.59171 9.66046 9.37651 8.88923 10.3265 8.88923C11.2766 8.88923 12.1027 9.66046 12.0614 10.594C12.0614 11.5276 11.2766 12.2989 10.3265 12.2989C9.37651 12.2989 8.59171 11.5276 8.59171 10.594ZM10.3264 13.3946C9.37636 13.3946 8.63286 14.1252 8.63286 15.0588C8.63286 15.9924 9.37636 16.723 10.3264 16.723C11.2764 16.723 12.0199 15.9924 12.0199 15.0588C12.0199 14.1658 11.2764 13.3946 10.3264 13.3946ZM8.71517 19.5646C8.71517 18.7122 9.45867 17.9815 10.3261 17.9815C11.2348 17.9815 11.937 18.7122 11.937 19.5646C11.937 20.417 11.1935 21.1476 10.3261 21.1476C9.45867 21.1476 8.71517 20.417 8.71517 19.5646ZM14.7873 4.26179C13.7546 4.26179 12.8872 5.11419 12.8872 6.12897C12.8872 7.14374 13.7546 7.99614 14.7873 7.99614C15.8199 7.99614 16.6873 7.14374 16.6873 6.12897C16.6873 5.11419 15.8199 4.26179 14.7873 4.26179ZM12.8049 10.6352C12.8049 9.53925 13.7136 8.68684 14.7876 8.68684C15.8615 8.68684 16.7702 9.53925 16.7702 10.6352C16.7702 11.7312 15.8615 12.5836 14.7876 12.5836C13.6723 12.5836 12.8049 11.6906 12.8049 10.6352ZM14.7873 13.1915C13.7546 13.1915 12.8872 14.0439 12.8872 15.0587C12.8872 16.0734 13.7546 16.9259 14.7873 16.9259C15.8199 16.9259 16.6873 16.0734 16.6873 15.0587C16.6873 14.0439 15.8199 13.1915 14.7873 13.1915ZM17.1827 10.5939C17.1827 9.3762 18.2154 8.44261 19.3719 8.44261C20.5285 8.44261 21.4785 9.3762 21.5611 10.5939C21.5611 11.8117 20.6111 12.7452 19.3719 12.7452C18.1328 12.7452 17.1827 11.7305 17.1827 10.5939ZM5.82418 4.66793C5.03938 4.66793 4.3785 5.31738 4.3785 6.08861C4.3785 6.85983 5.03938 7.50929 5.82418 7.50929C6.60898 7.50929 7.26987 6.85983 7.26987 6.08861C7.26987 5.31738 6.65029 4.66793 5.82418 4.66793ZM4.29619 10.5948C4.29619 9.74243 4.95708 9.09298 5.82449 9.09298C6.6919 9.09298 7.35278 9.74243 7.35278 10.5948C7.35278 11.4472 6.6919 12.0967 5.82449 12.0967C4.95708 12.0967 4.29619 11.4472 4.29619 10.5948ZM5.82418 13.5976C5.03938 13.5976 4.3785 14.2471 4.3785 15.0183C4.3785 15.7895 5.03938 16.439 5.82418 16.439C6.60898 16.439 7.26987 15.7895 7.26987 15.0183C7.26987 14.2471 6.65029 13.5976 5.82418 13.5976ZM0 10.6341C0 9.90345 0.578274 9.33518 1.32177 9.33518C2.06526 9.33518 2.64354 9.90345 2.64354 10.6341C2.64354 11.3647 2.06526 11.933 1.32177 11.933C0.578274 11.933 0 11.3647 0 10.6341Z" fill="#8C98A4"/>
<path d="M38.0025 7.83252C37.8373 7.83252 37.7134 7.99488 37.7134 8.11666V19.3603C37.7134 19.5227 37.8786 19.6445 38.0025 19.6445H39.3656C39.5308 19.6445 39.6547 19.4821 39.6547 19.3603V8.11666C39.6547 7.95429 39.4895 7.83252 39.3656 7.83252H38.0025Z" fill="#8C98A4"/>
<path d="M38.7461 3.0835C38.0026 3.0835 37.4243 3.65177 37.4243 4.3824C37.4243 5.11304 38.0026 5.68131 38.7461 5.68131C39.4896 5.68131 40.0679 5.11304 40.0679 4.3824C40.0679 3.65177 39.4483 3.0835 38.7461 3.0835Z" fill="#8C98A4"/>
<path d="M67.3297 7.83252C67.1644 7.83252 67.0405 7.99488 67.0405 8.11666V19.3603C67.0405 19.5227 67.2057 19.6445 67.3297 19.6445H68.6927C68.858 19.6445 68.9819 19.4821 68.9819 19.3603V8.11666C68.9819 7.95429 68.8167 7.83252 68.6927 7.83252H67.3297Z" fill="#8C98A4"/>
<path d="M67.9907 3.0835C67.2472 3.0835 66.6689 3.65177 66.6689 4.3824C66.6689 5.11304 67.2472 5.68131 67.9907 5.68131C68.7342 5.68131 69.3125 5.11304 69.3125 4.3824C69.3125 3.65177 68.7342 3.0835 67.9907 3.0835Z" fill="#8C98A4"/>
<path fill-rule="evenodd" clip-rule="evenodd" d="M81.9373 18.4128C81.929 18.4527 81.9083 18.5011 81.8569 18.5495C81.8569 18.6307 81.7709 18.7119 81.5988 18.6713L81.6649 18.7475C81.6565 18.7507 81.649 18.7525 81.6425 18.7525H81.5128L81.5127 18.7525H81.3413V18.6308V18.2655H81.6425C81.7286 18.2655 81.8146 18.2655 81.8576 18.3466C81.9076 18.3466 81.9286 18.374 81.9373 18.4128ZM81.3413 18.7525H81.2976V19.1178H81.1255V18.103H81.5127H81.6848C81.7709 18.103 81.8569 18.1842 81.8569 18.1842C81.943 18.1842 81.943 18.2654 81.943 18.2654V18.3466C81.943 18.3629 81.943 18.3859 81.9373 18.4128C81.9437 18.4409 81.9437 18.4749 81.9437 18.509C81.9437 18.5902 81.9437 18.6714 81.8576 18.6714C81.8072 18.6714 81.7568 18.6992 81.7151 18.7223C81.6963 18.7326 81.6793 18.742 81.6649 18.7475L81.986 19.1178H81.8139L81.5128 18.7525H81.3413V18.7525Z" fill="#8C98A4"/>
<path fill-rule="evenodd" clip-rule="evenodd" d="M80.5884 18.6304C80.5884 18.1433 81.0427 17.6968 81.5384 17.6968C82.0754 17.6968 82.4884 18.1027 82.4884 18.6304C82.4884 19.1175 82.0341 19.564 81.5384 19.564C81.0427 19.564 80.5884 19.1175 80.5884 18.6304ZM80.6714 18.6314C80.6714 19.1185 81.0431 19.4838 81.5388 19.4838C81.9932 19.4838 82.4062 19.1185 82.4062 18.6314C82.4062 18.1443 82.0345 17.779 81.5388 17.779C81.0431 17.779 80.6714 18.1443 80.6714 18.6314Z" fill="#8C98A4"/>
<path d="M49.3618 9.65909C49.527 9.65909 49.6509 9.49673 49.6509 9.37495V8.03545C49.6509 7.87309 49.4857 7.75132 49.3618 7.75132H46.4291V3.44869C46.4291 3.28632 46.2639 3.16455 46.14 3.16455H44.7769C44.6117 3.16455 44.4878 3.32691 44.4878 3.44869V7.75132H43.0421C42.8768 7.75132 42.7529 7.91368 42.7529 8.03545V9.37495C42.7529 9.53732 42.9182 9.65909 43.0421 9.65909H44.4878V16.1536C44.4878 18.1426 45.8508 19.4415 47.8335 19.4415H49.2792C49.4444 19.4415 49.5683 19.2791 49.5683 19.1574V17.8179C49.5683 17.6555 49.4031 17.5337 49.2792 17.5337H48.04C47.09 17.5337 46.4291 16.8843 46.4291 15.8695V9.6185H49.3618V9.65909Z" fill="#8C98A4"/>
<path d="M78.3574 9.65909C78.5226 9.65909 78.6465 9.49673 78.6465 9.37495V8.03545C78.6465 7.87309 78.4813 7.75132 78.3574 7.75132H75.4247V3.44869C75.4247 3.28632 75.2595 3.16455 75.1356 3.16455H73.7725C73.6073 3.16455 73.4834 3.32691 73.4834 3.44869V7.75132H72.0377C71.8725 7.75132 71.7485 7.91368 71.7485 8.03545V9.37495C71.7485 9.53732 71.9138 9.65909 72.0377 9.65909H73.4834V16.1536C73.4834 18.1426 74.8464 19.4415 76.8291 19.4415H78.2748C78.44 19.4415 78.5639 19.2791 78.5639 19.1574V17.8179C78.5639 17.6555 78.3987 17.5337 78.2748 17.5337H76.953C76.003 17.5337 75.3421 16.8843 75.3421 15.8695V9.6185H78.3161L78.3574 9.65909Z" fill="#8C98A4"/>
<path d="M29.3281 9.66053V19.24C29.3281 19.4023 29.4933 19.5241 29.6172 19.5241H30.9803C31.1455 19.5241 31.2694 19.3617 31.2694 19.24V9.66053H34.4912C34.6565 9.66053 34.7804 9.49816 34.7804 9.37639V8.03689C34.7804 7.87453 34.6152 7.75276 34.4912 7.75276H31.2694V5.23612C31.2694 4.22135 32.0129 3.53131 32.8803 3.53131H34.4912C34.6565 3.53131 34.7804 3.36894 34.7804 3.24717V1.90767C34.7804 1.74531 34.6152 1.62354 34.4912 1.62354H32.9629C30.939 1.62354 29.3281 3.28776 29.3281 5.19553V7.75276H27.8824C27.7172 7.75276 27.5933 7.91512 27.5933 8.03689V9.37639C27.5933 9.53875 27.7585 9.66053 27.8824 9.66053H29.3281Z" fill="#8C98A4"/>
<path fill-rule="evenodd" clip-rule="evenodd" d="M58.4895 7.38708C60.1004 7.38708 61.6287 8.03653 62.7026 9.17307C63.7765 10.3096 64.3548 11.8927 64.3548 13.6381C64.3548 17.9813 61.3395 19.9297 58.4482 19.9297C55.5155 19.9297 52.5415 18.0219 52.5415 13.6381V1.82613C52.5415 1.70436 52.6654 1.54199 52.8306 1.54199H54.1937C54.3176 1.54199 54.4829 1.66376 54.4829 1.82613V8.97012C55.4329 8.03653 56.9612 7.38708 58.4895 7.38708ZM54.4415 13.6796C54.4415 15.8309 55.5155 18.104 58.4482 18.104C61.3808 18.104 62.4135 15.8309 62.4548 13.6796C62.4548 11.0817 60.8439 9.29575 58.4482 9.29575C56.0524 9.29575 54.4415 11.0412 54.4415 13.6796Z" fill="#8C98A4"/>
</svg>
