<svg width="83" height="28" viewBox="0 0 83 28" fill="none" xmlns="http://www.w3.org/2000/svg">
<path d="M20.246 9.55212H10.6152V12.3919H17.4638C17.1214 16.3933 13.7827 18.1574 10.658 18.1574C6.63452 18.1574 3.12465 14.9734 3.12465 10.5417C3.12465 6.19606 6.46331 2.84001 10.658 2.84001C13.9111 2.84001 15.7944 4.90527 15.7944 4.90527L17.7634 2.84001C17.7634 2.84001 15.1952 0.000273827 10.5296 0.000273827C4.57996 -0.0427525 0 4.99133 0 10.4557C0 15.7909 4.32314 20.9971 10.7008 20.9971C16.3081 20.9971 20.4172 17.1678 20.4172 11.4453C20.4172 10.2405 20.246 9.55212 20.246 9.55212Z" fill="#8C98A4"/>
<path fill-rule="evenodd" clip-rule="evenodd" d="M21.3159 14.156C21.3159 10.5417 24.1409 7.44385 28.0789 7.44385C31.3319 7.44385 34.8418 9.76727 34.8846 14.242C34.8846 18.2004 31.8884 20.9971 28.1645 20.9971C24.0553 20.9971 21.3159 17.8562 21.3159 14.156ZM31.8888 14.2416C31.8888 11.7461 30.0483 10.1541 28.1221 10.1541C25.9392 10.1541 24.2698 11.8752 24.3126 14.1986C24.3126 16.6081 25.982 18.3291 28.1221 18.3291C30.0911 18.3291 31.8888 16.7372 31.8888 14.2416Z" fill="#8C98A4"/>
<path fill-rule="evenodd" clip-rule="evenodd" d="M36.041 14.156C36.041 10.5417 38.866 7.44385 42.8039 7.44385C46.057 7.44385 49.5669 9.76727 49.6097 14.242C49.6097 18.2004 46.6135 20.9971 42.8896 20.9971C38.7804 20.9971 36.041 17.8562 36.041 14.156ZM46.6126 14.2416C46.6126 11.7461 44.7721 10.1541 42.846 10.1541C40.663 10.1541 38.9936 11.8752 39.0365 14.1986C39.0365 16.6081 40.7058 18.3291 42.846 18.3291C44.8149 18.3291 46.6126 16.7372 46.6126 14.2416Z" fill="#8C98A4"/>
<path fill-rule="evenodd" clip-rule="evenodd" d="M50.7651 14.2415C50.7651 10.6703 53.5902 7.48633 57.2284 7.48633C58.8122 7.48633 60.0107 8.0887 60.7811 9.03528V7.87356H63.6062V20.05C63.6062 24.8259 60.8667 27.1063 57.2713 27.1063C53.9754 27.1063 52.1348 25.0841 51.236 23.1479L53.847 22.0723C54.2322 22.9328 55.2595 24.4817 57.3141 24.4817C59.4542 24.4817 60.8667 23.0619 60.8667 20.7384V19.4046C60.0535 20.3082 59.069 21.0396 57.1428 21.0396C54.061 21.0396 50.7651 18.2859 50.7651 14.2415ZM61.0798 14.2845C61.0798 11.7029 59.2393 10.154 57.4843 10.154C55.601 10.154 53.7604 11.6599 53.7176 14.3275C53.7176 16.78 55.5154 18.372 57.4415 18.372C59.2821 18.372 61.0798 16.9521 61.0798 14.2845Z" fill="#8C98A4"/>
<path fill-rule="evenodd" clip-rule="evenodd" d="M69.9839 14.199C69.9839 10.1545 72.8517 7.44385 76.276 7.44385C78.9298 7.44385 80.9416 9.25095 81.8404 11.3162L82.3113 12.4349L73.2797 16.2212C73.8362 17.2538 74.6923 18.2865 76.5756 18.2865C78.2449 18.2865 79.2722 17.3829 79.8715 16.4363L82.2257 18.0283C81.1984 19.4052 79.4006 20.9971 76.5756 20.9971C73.1941 20.9971 69.9839 18.4586 69.9839 14.199ZM78.8859 11.5307C78.4578 10.7132 77.6018 10.0678 76.3605 10.0678C74.4343 10.0678 72.551 12.09 72.8934 14.0692L78.8859 11.5307Z" fill="#8C98A4"/>
<path d="M65.7041 20.6097H68.6575V0.645508H65.7041V20.6097Z" fill="#8C98A4"/>
</svg>
