<svg width="83" height="22" viewBox="0 0 83 22" fill="none" xmlns="http://www.w3.org/2000/svg">
<path fill-rule="evenodd" clip-rule="evenodd" d="M11.3176 20.5024C10.5419 20.6298 9.76607 20.7093 8.97002 20.7909C8.49454 20.8396 8.01182 20.8891 7.51756 20.9499L3.55225 9.47831V21.4381C2.31309 21.5601 1.19785 21.7228 0 21.9262V0H3.30442L7.80669 12.4479V0H11.3176V20.5024ZM18.1739 8.05488C18.8717 8.05488 19.7535 8.03356 20.6143 8.01274H20.6143C21.435 7.9929 22.2366 7.97352 22.8414 7.97352V11.3906C21.3131 11.3906 19.4957 11.3906 18.1739 11.4719V16.5569C18.8176 16.5181 19.4655 16.4751 20.1163 16.432C21.5116 16.3396 22.92 16.2462 24.3284 16.1908V19.4858L14.7043 20.218V0.000349303H24.3284V3.41742H18.1739V8.05488ZM33.6218 3.4581H37.2154C37.2154 3.4581 37.2154 0.000349303 37.2567 0.000349303H26.5586V3.4581H30.1522V19.2417C31.2674 19.201 32.4653 19.201 33.6218 19.201V3.4581ZM42.8735 7.8108H47.6236V11.2279H42.8735V18.9976H39.4452V0.000349303H49.1519V3.41742H42.8735V7.8108ZM58.4143 16.1509C57.2198 16.0817 56.0161 16.0121 54.8123 15.9874V0.000349303H51.3427V19.201C54.5232 19.2824 57.6211 19.4451 60.719 19.6485V16.2721C59.9564 16.2402 59.1875 16.1956 58.4147 16.1509L58.4145 16.1509L58.4143 16.1509ZM63.6511 19.8926C64.0375 19.9208 64.4289 19.9441 64.8235 19.9676C65.5678 20.0119 66.3236 20.0569 67.0794 20.1367V0.000349303H63.6511V19.8926ZM77.8599 10.4143L82.2795 0.000349303H78.4381L76.0011 5.73615L73.7293 0.000349303H70.0119L74.0598 10.2922L69.5988 20.2994C70.0945 20.3645 70.5901 20.4165 71.0858 20.4686C71.8293 20.5467 72.5728 20.6248 73.3163 20.7469L75.8772 14.9297L78.3555 21.2757C78.8184 21.3469 79.2763 21.4231 79.7326 21.4991C80.5793 21.6401 81.4207 21.7802 82.2795 21.8859L77.8599 10.4143Z" fill="#8C98A4"/>
</svg>
