<svg width="95" height="28" viewBox="0 0 95 28" fill="none" xmlns="http://www.w3.org/2000/svg">
<path d="M16.9437 2.38274C16.5669 1.14833 15.2483 0.483651 14.0239 0.86347C12.7995 1.24329 12.1402 2.57265 12.5169 3.80706L18.5449 22.5131C18.9687 23.6526 20.1931 24.3173 21.3705 23.9849C22.5949 23.6051 23.3484 22.3232 22.9717 21.0888C22.9717 21.0413 16.9437 2.38274 16.9437 2.38274Z" fill="#8C98A4"/>
<path d="M7.61947 5.46868C7.24272 4.23427 5.92411 3.56959 4.69968 3.94941C3.47525 4.32923 2.81594 5.65859 3.19269 6.893L9.22065 25.5991C9.64449 26.7385 10.8689 27.4032 12.0463 27.0709C13.2707 26.691 14.0242 25.4092 13.6474 24.1747C13.6474 24.1273 7.61947 5.46868 7.61947 5.46868Z" fill="#8C98A4"/>
<path d="M24.5747 17.9074C25.7992 17.5276 26.4585 16.1982 26.0817 14.9638C25.705 13.7294 24.3864 13.0647 23.1619 13.4445L4.56002 19.4741C3.42978 19.9014 2.77047 21.1358 3.10012 22.3228C3.47687 23.5572 4.74839 24.3168 5.97282 23.937C6.06701 23.937 24.5747 17.9074 24.5747 17.9074Z" fill="#8C98A4"/>
<path d="M8.41986 23.1773C9.64429 22.7975 11.1984 22.2753 12.8466 21.7055C12.4699 20.4711 11.9519 18.9044 11.3867 17.2427L6.95996 18.7145L8.41986 23.1773Z" fill="#8C98A4"/>
<path d="M17.791 20.0909C19.4863 19.5212 21.0404 19.0464 22.2177 18.6191C21.841 17.3847 21.323 15.818 20.7578 14.1562L16.3311 15.628L17.791 20.0909Z" fill="#8C98A4"/>
<path d="M21.5125 8.45866C22.7369 8.07884 23.3963 6.74948 23.0195 5.51507C22.6428 4.28066 21.3241 3.61598 20.0997 3.99579L1.54488 10.0729C0.414639 10.5002 -0.24467 11.7346 0.0849842 12.9215C0.461732 14.2034 1.73326 14.9631 2.95769 14.5358C3.00478 14.5358 21.5125 8.45866 21.5125 8.45866Z" fill="#8C98A4"/>
<path d="M5.40668 13.7291C6.63111 13.3493 8.18519 12.827 9.83346 12.2573C9.26834 10.5481 8.79741 8.98137 8.37356 7.79443L3.94678 9.26623L5.40668 13.7291Z" fill="#8C98A4"/>
<path d="M14.7309 10.6905C16.4263 10.1208 17.9803 9.64602 19.1577 9.21873C18.5926 7.50954 18.1216 5.94279 17.6978 4.75586L13.271 6.22766L14.7309 10.6905Z" fill="#8C98A4"/>
<path d="M43.3641 7.31986C44.1647 7.69968 44.2589 7.93706 43.5996 9.17147C42.9403 10.4534 42.799 10.5008 41.9513 10.1685C40.9153 9.7412 39.6437 9.40886 38.7961 9.40886C37.4303 9.40886 36.5356 9.88363 36.5356 10.6433C36.5356 13.1121 44.4002 11.7827 44.4002 17.1002C44.4002 19.7589 42.1397 21.5156 38.749 21.5156C36.9594 21.5156 34.746 20.8984 33.239 20.1387C32.4855 19.7589 32.4384 19.5215 33.0977 18.2396C33.6629 17.1477 33.8512 17.0052 34.6518 17.3376C35.9704 17.9073 37.5716 18.3346 38.7019 18.3346C39.9734 18.3346 40.774 17.8123 40.774 17.0527C40.774 14.6314 32.7681 15.7708 32.7681 10.6433C32.7681 7.93706 35.0286 6.08545 38.3722 6.08545C39.9734 6.22788 41.9984 6.70265 43.3641 7.31986Z" fill="#8C98A4"/>
<path d="M49.7207 1.05246V20.803C49.7207 21.0879 49.3911 21.4202 48.9672 21.4202H46.8951C46.4242 21.4202 46.1416 21.0879 46.1416 20.803V1.05246C46.1416 0.0554388 46.4242 0.00796146 47.9312 0.00796146C49.6265 -0.0395159 49.7207 0.102916 49.7207 1.05246Z" fill="#8C98A4"/>
<path fill-rule="evenodd" clip-rule="evenodd" d="M64.3216 20.6132V12.1147C64.3216 8.4115 61.8256 6.22754 57.8698 6.22754C56.0802 6.22754 54.1023 6.79727 52.6895 7.74681C51.936 8.22159 51.936 8.45897 52.6895 9.64591C53.4901 10.8328 53.6314 10.8803 54.3849 10.453C55.3267 9.88329 56.5041 9.50347 57.493 9.50347C59.5651 9.50347 60.7896 10.453 60.7896 12.0198V13.0168C59.8006 12.5895 58.5762 12.3521 57.2576 12.3521C53.7255 12.3521 51.418 14.2512 51.418 17.0998C51.418 19.7586 53.4901 21.5627 56.5512 21.5627C58.1523 21.5627 59.7535 20.898 60.8367 19.6636L60.7896 20.5657C60.7425 21.0405 61.0721 21.3728 61.5431 21.3728H63.5681C63.9919 21.3728 64.3216 21.0879 64.3216 20.6132ZM56.9749 18.713C55.7033 18.713 54.8557 18.0483 54.8557 17.0513C54.8557 15.8168 56.1272 14.8673 58.0109 14.8673C58.9057 14.8673 59.9418 15.0097 60.7423 15.3421V16.6714C59.9418 17.9533 58.529 18.713 56.9749 18.713Z" fill="#8C98A4"/>
<path d="M78.3075 7.36624C79.061 7.79354 79.061 8.03093 78.2604 9.31281C77.5069 10.4997 77.3656 10.5947 76.518 10.1674C75.9057 9.83506 74.8697 9.5502 74.0691 9.5502C71.479 9.5502 69.7836 11.2594 69.7836 13.8706C69.7836 16.5768 71.479 18.381 74.0691 18.381C74.9639 18.381 76.0941 18.0486 76.8005 17.6213C77.554 17.194 77.6953 17.194 78.4959 18.381C79.2023 19.473 79.2023 19.7103 78.543 20.1851C77.4127 20.9922 75.5761 21.6094 73.9749 21.6094C69.2185 21.6094 66.0161 18.5234 66.0161 13.9181C66.0161 9.31281 69.2185 6.27427 74.022 6.27427C75.529 6.22679 77.2244 6.70156 78.3075 7.36624Z" fill="#8C98A4"/>
<path d="M93.8947 19.52C94.5069 20.2796 94.2714 20.5645 92.7644 21.0868C91.2574 21.6565 91.022 21.609 90.5039 20.8969L86.2184 15.1521L84.2876 17.0037V20.7544C84.2876 21.0393 83.9579 21.3716 83.5341 21.3716H81.462C80.9911 21.3716 80.7085 21.0393 80.7085 20.7544V1.05134C80.7085 0.0543133 80.9911 0.00683594 82.498 0.00683594C84.2405 0.00683594 84.2876 0.149268 84.2876 1.05134V12.256L90.1272 6.60618C90.7865 5.98898 91.1162 6.03645 92.2935 6.79609C93.565 7.60321 93.6592 7.84059 93.047 8.4578L88.7144 12.7308L93.8947 19.52Z" fill="#8C98A4"/>
</svg>
