<svg width="83" height="18" viewBox="0 0 83 18" fill="none" xmlns="http://www.w3.org/2000/svg">
<path d="M12.9464 0.420745V10.1287C12.9464 13.3647 11.549 14.7095 8.26105 14.7095C4.97307 14.7095 3.57568 13.3647 3.57568 10.1287V0.000488281H0.410998C0.123299 0.000488281 0 0.126565 0 0.420745V10.2548C0 15.6761 3.37018 17.5672 8.26105 17.5672C13.1519 17.5672 16.5221 15.6761 16.5221 10.2548V0.000488281H13.3574C13.1108 0.000488281 12.9464 0.126565 12.9464 0.420745Z" fill="#8C98A4"/>
<path d="M58.8546 2.81572C59.1012 2.81572 59.2245 2.73167 59.3067 2.52154L60.2109 0.210129C60.252 0.0840514 60.2109 0 60.0876 0H47.3466C46.1547 0 45.7026 0.378231 45.7026 1.21875V16.2639C45.7026 16.9784 46.0314 17.2726 46.9767 17.2726H58.8546C59.1012 17.2726 59.2245 17.1885 59.3067 16.9784L60.2109 14.667C60.252 14.5409 60.2109 14.4568 60.0876 14.4568H49.1961V11.389C49.1961 10.3383 49.7715 9.83402 51.2922 9.83402H56.0187C56.2653 9.83402 56.3886 9.74996 56.4708 9.53983L57.3339 7.31247C57.375 7.1864 57.3339 7.10234 57.2106 7.10234H49.155V2.81572H58.8546Z" fill="#8C98A4"/>
<path fill-rule="evenodd" clip-rule="evenodd" d="M38.3878 4.37067C38.3878 6.00968 37.8124 7.39652 36.415 8.15299C38.3056 8.69932 39.1687 10.4224 39.1276 12.4816C39.1276 15.9277 36.7438 17.2726 33.4147 17.2726H24.5783C23.633 17.2726 23.3042 16.9784 23.3042 16.2639V1.21875C23.3042 0.378231 23.7563 0 24.9482 0H32.1817C35.3464 0 38.3878 0.546334 38.3878 4.37067ZM26.8387 2.77407H32.4283C34.2778 2.77407 34.8121 3.4885 34.8121 5.00143C34.8121 6.47233 34.2778 7.22879 32.4283 7.22879H26.8387V2.77407ZM33.0859 14.4987H26.8387V11.3468C26.8387 10.2961 27.4141 9.79181 28.9348 9.79181H33.0859C35.0587 9.79181 35.6341 10.5903 35.6341 12.1453C35.6341 13.7422 35.0587 14.4987 33.0859 14.4987Z" fill="#8C98A4"/>
<path fill-rule="evenodd" clip-rule="evenodd" d="M78.5416 10.3383L82.3228 16.9784C82.405 17.0624 82.405 17.2726 82.1173 17.2726H78.9115C78.6745 17.2726 78.5893 17.1561 78.4736 16.9978C78.4689 16.9914 78.4642 16.9849 78.4594 16.9784L75.0481 10.6745H71.9245C70.4038 10.6745 69.8284 11.1788 69.8284 12.2295V17.2726H66.746C66.4583 17.2726 66.335 17.1465 66.335 16.8523V1.21875C66.335 0.378231 66.7871 0 67.979 0H75.2125C79.4047 0 81.9529 1.13469 81.9529 5.33726C81.9529 8.57324 80.4322 9.83401 78.5416 10.3383ZM69.8291 8.02728H75.7064C77.9258 8.02728 78.3779 7.14474 78.3779 5.37966C78.3779 3.65661 77.8847 2.77407 75.7064 2.77407H69.8291V8.02728Z" fill="#8C98A4"/>
</svg>
